<mxfile host="drawio-plugin" modified="2022-10-08T14:31:53.981Z" agent="5.0 (Windows NT 6.2; Win64; x64) AppleWebKit/537.36 (KHTML, like Gecko) Chrome/98.0.4758.102 Safari/537.36" etag="bYTFhGyiYX5yav6oZoMM" version="15.5.4" type="embed"><diagram id="sa6Q3xUmAi24UDrEMSUv" name="Página-1"><mxGraphModel dx="1618" dy="1781" grid="1" gridSize="10" guides="1" tooltips="1" connect="1" arrows="1" fold="1" page="1" pageScale="1" pageWidth="827" pageHeight="1169" math="0" shadow="0"><root><mxCell id="0"/><mxCell id="1" parent="0"/><mxCell id="265" value="Bob" style="shape=umlActor;verticalLabelPosition=bottom;verticalAlign=top;html=1;outlineConnect=0;" vertex="1" parent="1"><mxGeometry x="-689" y="-1121" width="30" height="60" as="geometry"/></mxCell><mxCell id="266" value="Mary" style="shape=umlActor;verticalLabelPosition=bottom;verticalAlign=top;html=1;outlineConnect=0;" vertex="1" parent="1"><mxGeometry x="-689" y="-841" width="30" height="60" as="geometry"/></mxCell><mxCell id="269" value="New Game" style="text;html=1;strokeColor=none;fillColor=none;align=center;verticalAlign=middle;whiteSpace=wrap;rounded=0;" vertex="1" parent="1"><mxGeometry x="-506" y="-1061" width="60" height="30" as="geometry"/></mxCell><mxCell id="272" value="" style="endArrow=classic;startArrow=classic;html=1;rounded=0;entryX=0;entryY=0.5;entryDx=0;entryDy=0;" edge="1" parent="1" source="265" target="273"><mxGeometry width="50" height="50" relative="1" as="geometry"><mxPoint x="-399" y="-831" as="sourcePoint"/><mxPoint x="-289" y="-906" as="targetPoint"/></mxGeometry></mxCell><mxCell id="313" style="edgeStyle=orthogonalEdgeStyle;rounded=0;orthogonalLoop=1;jettySize=auto;html=1;" edge="1" parent="1" source="273" target="304"><mxGeometry relative="1" as="geometry"/></mxCell><mxCell id="273" value="SERVER" style="rounded=0;whiteSpace=wrap;html=1;" vertex="1" parent="1"><mxGeometry x="-259" y="-1031" width="120" height="250" as="geometry"/></mxCell><mxCell id="274" value="Game&lt;br&gt;&lt;br&gt;id" style="html=1;" vertex="1" parent="1"><mxGeometry x="-529" y="-1021" width="110" height="50" as="geometry"/></mxCell><mxCell id="275" value="New Game" style="text;html=1;strokeColor=none;fillColor=none;align=center;verticalAlign=middle;whiteSpace=wrap;rounded=0;" vertex="1" parent="1"><mxGeometry x="-504" y="-911" width="60" height="30" as="geometry"/></mxCell><mxCell id="277" value="" style="endArrow=classic;startArrow=classic;html=1;rounded=0;entryX=0;entryY=0.5;entryDx=0;entryDy=0;" edge="1" parent="1" source="266" target="273"><mxGeometry width="50" height="50" relative="1" as="geometry"><mxPoint x="-649" y="-1074.3132530120483" as="sourcePoint"/><mxPoint x="-249" y="-896" as="targetPoint"/></mxGeometry></mxCell><mxCell id="278" value="Game&lt;br&gt;&lt;br&gt;id" style="html=1;" vertex="1" parent="1"><mxGeometry x="-529" y="-871" width="110" height="50" as="geometry"/></mxCell><mxCell id="288" value="1" style="text;html=1;strokeColor=none;fillColor=none;align=center;verticalAlign=middle;whiteSpace=wrap;rounded=0;" vertex="1" parent="1"><mxGeometry x="-473" y="-1001" width="60" height="30" as="geometry"/></mxCell><mxCell id="289" value="2" style="text;html=1;strokeColor=none;fillColor=none;align=center;verticalAlign=middle;whiteSpace=wrap;rounded=0;" vertex="1" parent="1"><mxGeometry x="-463" y="-851" width="60" height="30" as="geometry"/></mxCell><mxCell id="290" value="Preparation Phase" style="text;html=1;strokeColor=none;fillColor=none;align=center;verticalAlign=middle;whiteSpace=wrap;rounded=0;fontSize=20;" vertex="1" parent="1"><mxGeometry x="-540" y="-1140" width="140" height="30" as="geometry"/></mxCell><mxCell id="291" value="&lt;br style=&quot;font-size: 20px;&quot;&gt;...&lt;br style=&quot;font-size: 20px;&quot;&gt;&lt;br style=&quot;font-size: 20px;&quot;&gt;Confirm Fleet&lt;br style=&quot;font-size: 20px;&quot;&gt;..." style="text;html=1;strokeColor=none;fillColor=none;align=center;verticalAlign=middle;whiteSpace=wrap;rounded=0;fontSize=20;" vertex="1" parent="1"><mxGeometry x="-543" y="-711" width="140" height="30" as="geometry"/></mxCell><mxCell id="292" value="Bob" style="shape=umlActor;verticalLabelPosition=bottom;verticalAlign=top;html=1;outlineConnect=0;" vertex="1" parent="1"><mxGeometry x="-689" y="-441" width="30" height="60" as="geometry"/></mxCell><mxCell id="293" value="Mary" style="shape=umlActor;verticalLabelPosition=bottom;verticalAlign=top;html=1;outlineConnect=0;" vertex="1" parent="1"><mxGeometry x="-689" y="-161" width="30" height="60" as="geometry"/></mxCell><mxCell id="295" value="" style="endArrow=classic;startArrow=classic;html=1;rounded=0;entryX=0;entryY=0.5;entryDx=0;entryDy=0;" edge="1" source="292" target="296" parent="1"><mxGeometry width="50" height="50" relative="1" as="geometry"><mxPoint x="-399" y="-151" as="sourcePoint"/><mxPoint x="-289" y="-226" as="targetPoint"/></mxGeometry></mxCell><mxCell id="321" style="edgeStyle=orthogonalEdgeStyle;rounded=0;orthogonalLoop=1;jettySize=auto;html=1;" edge="1" parent="1" source="296" target="314"><mxGeometry relative="1" as="geometry"/></mxCell><mxCell id="296" value="SERVER" style="rounded=0;whiteSpace=wrap;html=1;" vertex="1" parent="1"><mxGeometry x="-259" y="-351" width="120" height="250" as="geometry"/></mxCell><mxCell id="297" value="Game&lt;br&gt;&lt;br&gt;id" style="html=1;" vertex="1" parent="1"><mxGeometry x="-529" y="-341" width="110" height="50" as="geometry"/></mxCell><mxCell id="299" value="" style="endArrow=classic;startArrow=classic;html=1;rounded=0;entryX=0;entryY=0.5;entryDx=0;entryDy=0;" edge="1" source="293" target="296" parent="1"><mxGeometry width="50" height="50" relative="1" as="geometry"><mxPoint x="-649" y="-394.31325301204834" as="sourcePoint"/><mxPoint x="-249" y="-216" as="targetPoint"/></mxGeometry></mxCell><mxCell id="300" value="Game&lt;br&gt;&lt;br&gt;id" style="html=1;" vertex="1" parent="1"><mxGeometry x="-529" y="-191" width="110" height="50" as="geometry"/></mxCell><mxCell id="301" value="3" style="text;html=1;strokeColor=none;fillColor=none;align=center;verticalAlign=middle;whiteSpace=wrap;rounded=0;" vertex="1" parent="1"><mxGeometry x="-473" y="-321" width="60" height="30" as="geometry"/></mxCell><mxCell id="302" value="3" style="text;html=1;strokeColor=none;fillColor=none;align=center;verticalAlign=middle;whiteSpace=wrap;rounded=0;" vertex="1" parent="1"><mxGeometry x="-463" y="-171" width="60" height="30" as="geometry"/></mxCell><mxCell id="303" value="Battle Phase" style="text;html=1;strokeColor=none;fillColor=none;align=center;verticalAlign=middle;whiteSpace=wrap;rounded=0;fontSize=20;" vertex="1" parent="1"><mxGeometry x="-540" y="-546" width="140" height="30" as="geometry"/></mxCell><mxCell id="304" value="" style="shape=cylinder3;whiteSpace=wrap;html=1;boundedLbl=1;backgroundOutline=1;size=15;" vertex="1" parent="1"><mxGeometry x="-98" y="-946" width="60" height="80" as="geometry"/></mxCell><mxCell id="306" value="Game&lt;br&gt;&lt;br&gt;id" style="html=1;" vertex="1" parent="1"><mxGeometry x="26" y="-1011" width="110" height="50" as="geometry"/></mxCell><mxCell id="308" value="Game&lt;br&gt;&lt;br&gt;id" style="html=1;" vertex="1" parent="1"><mxGeometry x="32" y="-831" width="110" height="50" as="geometry"/></mxCell><mxCell id="309" value="1" style="text;html=1;strokeColor=none;fillColor=none;align=center;verticalAlign=middle;whiteSpace=wrap;rounded=0;" vertex="1" parent="1"><mxGeometry x="82" y="-991" width="60" height="30" as="geometry"/></mxCell><mxCell id="310" value="2" style="text;html=1;strokeColor=none;fillColor=none;align=center;verticalAlign=middle;whiteSpace=wrap;rounded=0;" vertex="1" parent="1"><mxGeometry x="98" y="-811" width="60" height="30" as="geometry"/></mxCell><mxCell id="311" value="" style="endArrow=classic;html=1;rounded=0;" edge="1" parent="1" source="304" target="306"><mxGeometry width="50" height="50" relative="1" as="geometry"><mxPoint x="-228" y="-821" as="sourcePoint"/><mxPoint x="-178" y="-871" as="targetPoint"/></mxGeometry></mxCell><mxCell id="312" value="" style="endArrow=classic;html=1;rounded=0;" edge="1" parent="1" source="304" target="308"><mxGeometry width="50" height="50" relative="1" as="geometry"><mxPoint x="-28" y="-912.1073825503355" as="sourcePoint"/><mxPoint x="44.4375" y="-951" as="targetPoint"/></mxGeometry></mxCell><mxCell id="314" value="" style="shape=cylinder3;whiteSpace=wrap;html=1;boundedLbl=1;backgroundOutline=1;size=15;" vertex="1" parent="1"><mxGeometry x="-90" y="-266" width="60" height="80" as="geometry"/></mxCell><mxCell id="315" value="Game&lt;br&gt;&lt;br&gt;id" style="html=1;" vertex="1" parent="1"><mxGeometry x="60" y="-251" width="110" height="50" as="geometry"/></mxCell><mxCell id="317" value="3" style="text;html=1;strokeColor=none;fillColor=none;align=center;verticalAlign=middle;whiteSpace=wrap;rounded=0;" vertex="1" parent="1"><mxGeometry x="116" y="-231" width="60" height="30" as="geometry"/></mxCell><mxCell id="319" value="" style="endArrow=classic;html=1;rounded=0;" edge="1" source="314" target="315" parent="1"><mxGeometry width="50" height="50" relative="1" as="geometry"><mxPoint x="-220" y="-141" as="sourcePoint"/><mxPoint x="-170" y="-191" as="targetPoint"/></mxGeometry></mxCell></root></mxGraphModel></diagram></mxfile>